<?xml version="1.0"?>
<svg xmlns:rdf="http://www.w3.org/1999/02/22-rdf-syntax-ns#" xmlns="http://www.w3.org/2000/svg" xmlns:cc="http://creativecommons.org/ns#" xmlns:dc="http://purl.org/dc/elements/1.1/" id="svg3473" viewBox="0 0 266.81 174.22" version="1.1">
 <g id="layer1" transform="translate(-84.401 -233.04)">
  <path id="path3962" style="enable-background:new" transform="matrix(.010518 0 0 .010518 122.78 259.72)" fill="#b69c32" d="m7693.3 2732.3c0 964.04-781.51 1745.5-1745.5 1745.5-964.04 0-1745.5-781.51-1745.5-1745.5 0-964.04 781.51-1745.5 1745.5-1745.5 964.04 0 1745.5 781.51 1745.5 1745.5z"/>
  <path id="path3937" style="enable-background:new" fill="#d45500" d="m172.66 376.73s-4.2477 18.387 1.9989 22.072c7.6924 4.5382 24.363-11.15 24.363-11.15z"/>
  <path id="path3939" style="enable-background:new" d="m199.09 387.66s-17.306 20.252-26.104 15.315c-7.9581-4.4659-0.47773-27.373-0.47773-27.373s-2.2342 17.618 4.0316 21.05c7.0975 3.8872 22.55-8.9916 22.55-8.9916z"/>
  <path id="path3933" style="enable-background:new" fill="#f60" d="m124.36 382.94s11.46 21.58 20.559 19.501c7.6714-1.7528 8.2427-22.122 8.2427-22.122z"/>
  <path id="path3935" style="enable-background:new" d="m124.48 383.7s11.155 24.191 20.963 21.829c8.872-2.1364 7.8948-26.214 7.8948-26.214s-2.6352 17.562-9.5976 19.163c-7.8863 1.8132-19.26-14.779-19.26-14.779z"/>
  <path id="path3917" style="enable-background:new" fill="#d45500" d="m112.18 375.92s-4.6523 23.987 3.7316 28.09c7.0681 3.4589 20.316-12.024 20.316-12.024z"/>
  <path id="path3919" style="enable-background:new" fill="#d45500" d="m183.19 391.44s12.553 14.09 19.17 11.121c8.1485-3.6565 4.9753-26.328 4.9753-26.328z"/>
  <path id="path3019" style="enable-background:new" d="m203.92 352.03c-2.9235-21.069 21.173-74.685 48.618-96.96 33.916-27.527 93.304-29.989 98.211-3.2204 6.3894 34.858-54.158 11.735-81.374 34.409-17.766 14.802-32.334 52.544-62.901 75.256z"/>
  <path id="path3015" style="enable-background:new" fill="#d45500" d="m212.04 328.45c6.8698-15.298 23.602-54.631 43.972-70.085 30.749-23.329 83.84-29.615 90.423-5.55 6.9304 25.335-56.844 12.736-78.647 29.06-15.84 11.859-46.162 60.612-46.162 60.612z"/>
  <path id="path2995" style="enable-background:new" transform="matrix(.10822 0 0 .10822 82.688 254.78)" d="m1345.7 685.22c0 352.67-285.9 638.57-638.57 638.57s-638.57-285.9-638.57-638.57 285.9-638.57 638.57-638.57 638.57 285.9 638.57 638.57z"/>
  <path id="path3021" style="enable-background:new" d="m111.8 376.59s-6.5305 25.826 2.582 30.154c8.2431 3.9152 22.618-15.425 22.618-15.425s-13.089 12.003-19.51 8.871c-7.2733-3.547-5.6896-23.6-5.6896-23.6z"/>
  <path id="path2997" style="enable-background:new" d="m135.56 267.56s-43.13-24.422-49.783-21.954c-5.8843 2.1831 8.9671 61.224 8.9671 61.224z"/>
  <path id="path2999" style="enable-background:new" d="m183.97 271.27s43.13-24.422 49.783-21.954c5.8843 2.1831-8.9672 61.224-8.9672 61.224z"/>
  <path id="path2985" style="enable-background:new" transform="matrix(.10261 0 0 .10261 86.376 258.86)" fill="#d45500" d="m1345.7 685.22c0 352.67-285.9 638.57-638.57 638.57s-638.57-285.9-638.57-638.57 285.9-638.57 638.57-638.57 638.57 285.9 638.57 638.57z"/>
  <path id="path2987" style="enable-background:new" fill="#d45500" d="m136.4 271.45s-40.893-23.155-47.201-20.815c-5.5792 2.0699 8.502 58.048 8.502 58.048z"/>
  <path id="path2989" style="enable-background:new" fill="#d45500" d="m182.29 274.97s40.893-23.155 47.201-20.815c5.5791 2.0699-8.5021 58.048-8.5021 58.048z"/>
  <path id="path3023" style="enable-background:new" d="m207.38 376.18s6.5306 25.826-2.582 30.154c-8.2431 3.9152-22.618-15.425-22.618-15.425s13.089 12.003 19.51 8.871c7.2733-3.547 5.6895-23.6 5.6895-23.6z"/>
  <path id="path3025" style="enable-background:new" transform="matrix(.10261 0 0 .10261 86.266 259.33)" fill="#502d16" d="m565.71 531.69c0 108.51-54.365 196.48-121.43 196.48-67.063 0-121.43-87.965-121.43-196.48 0-108.51 54.365-196.48 121.43-196.48 67.063 0 121.43 87.965 121.43 196.48z"/>
  <path id="path3027" style="enable-background:new" transform="matrix(.088342 0 0 .088342 92.605 266.92)" fill="#fff" d="m565.71 531.69c0 108.51-54.365 196.48-121.43 196.48-67.063 0-121.43-87.965-121.43-196.48 0-108.51 54.365-196.48 121.43-196.48 67.063 0 121.43 87.965 121.43 196.48z"/>
  <path id="path3811" style="enable-background:new" transform="matrix(-.0012526 .11703 -.035274 -.0041558 151.17 264.11)" d="m565.71 531.69c0 108.51-54.365 196.48-121.43 196.48-67.063 0-121.43-87.965-121.43-196.48 0-108.51 54.365-196.48 121.43-196.48 67.063 0 121.43 87.965 121.43 196.48z"/>
  <path id="path3809" style="enable-background:new" transform="matrix(.031604 0 0 .031604 121.38 289.51)" fill="#fff" d="m565.71 531.69c0 108.51-54.365 196.48-121.43 196.48-67.063 0-121.43-87.965-121.43-196.48 0-108.51 54.365-196.48 121.43-196.48 67.063 0 121.43 87.965 121.43 196.48z"/>
  <path id="path3849" style="enable-background:new" transform="matrix(-.10261 0 0 .10261 230.59 259.33)" fill="#502d16" d="m565.71 531.69c0 108.51-54.365 196.48-121.43 196.48-67.063 0-121.43-87.965-121.43-196.48 0-108.51 54.365-196.48 121.43-196.48 67.063 0 121.43 87.965 121.43 196.48z"/>
  <path id="path3851" style="enable-background:new" transform="matrix(-.088342 0 0 .088342 224.26 266.92)" fill="#fff" d="m565.71 531.69c0 108.51-54.365 196.48-121.43 196.48-67.063 0-121.43-87.965-121.43-196.48 0-108.51 54.365-196.48 121.43-196.48 67.063 0 121.43 87.965 121.43 196.48z"/>
  <path id="path3853" style="enable-background:new" transform="matrix(.0012526 .11703 .035274 -.0041558 165.7 264.11)" d="m565.71 531.69c0 108.51-54.365 196.48-121.43 196.48-67.063 0-121.43-87.965-121.43-196.48 0-108.51 54.365-196.48 121.43-196.48 67.063 0 121.43 87.965 121.43 196.48z"/>
  <path id="path3855" style="enable-background:new" transform="matrix(-.031604 0 0 .031604 195.48 289.51)" fill="#fff" d="m565.71 531.69c0 108.51-54.365 196.48-121.43 196.48-67.063 0-121.43-87.965-121.43-196.48 0-108.51 54.365-196.48 121.43-196.48 67.063 0 121.43 87.965 121.43 196.48z"/>
  <path id="path3879" style="enable-background:new" d="m122.08 346.79c13.275 8.3392 22.17 8.3392 36.647 2.036 15.767 6.3032 24.228 6.3032 38.259-2.036-15.393 6.8734-27.726 6.9543-38.112 0-13.187 9.4519-25.891 4.2543-36.793 0z"/>
  <path id="path3883" style="enable-background:new" d="m129.47 350.77s1.4675 7.7918 4.5002 7.9162c2.7548 0.11298 4.663-6.8318 4.663-6.8318-3.4515 0.73026-6.2675-0.2866-9.1632-1.0844z"/>
  <path id="path3885" style="enable-background:new" fill="#fff" d="m130.4 351.53s1.1623 6.1713 3.5643 6.2698c2.182 0.0895 3.5466-4.7513 3.5466-4.7513-3.1001 0.0653-4.8174-0.88662-7.1109-1.5185z"/>
  <path id="path3887" style="enable-background:new" d="m187.94 351.14s-1.4569 7.7197-4.4677 7.8429c-2.7348 0.11193-4.6291-6.7685-4.6291-6.7685 3.4264 0.7235 6.2221-0.28394 9.0968-1.0744z"/>
  <path id="path3889" style="enable-background:new" fill="#fff" d="m187.15 351.91s-1.1623 6.1713-3.5644 6.2698c-2.1819 0.0895-3.5465-4.9712-3.5465-4.9712 3.1001-0.19119 4.8174-0.66676 7.1109-1.2986z"/>
  <path id="path3893" style="enable-background:new" d="m151.62 339.44c1.9573-4.7241 13.487-4.8176 15.341-0.0518 1.321 3.3964-8.0848 7.3593-8.0848 7.3593s-8.5696-4.1363-7.2557-7.3075z"/>
  <path id="path3895" style="enable-background:new" fill="#4d4d4d" d="m152.09 339.49c2.7558-5.3583 13.596-3.5356 14.641 0.0777-4.8254-2.2413-10.411-2.0774-14.641-0.0777z"/>
  <path id="path3921" style="enable-background:new" d="m201.69 322.38c8.052-2.5283 14.505-9.3553 26.361-1.6584-8.12-1.9123-16.749-1.9444-26.361 1.6584z"/>
  <path id="path3923" style="enable-background:new" d="m201.89 334.82c8.0521-2.5283 14.505-9.3553 26.361-1.6584-8.1199-1.9123-16.749-1.9444-26.361 1.6584z"/>
  <path id="path3925" style="enable-background:new" d="m199.73 348.17c8.052-2.5283 14.505-9.3553 26.361-1.6584-8.1199-1.9123-16.749-1.9444-26.361 1.6584z"/>
  <path id="path3898" style="enable-background:new" fill-opacity=".71488" fill="#f95" d="m88.904 250.93c-4.2951 4.4034 7.3473 52.932 8.3432 56.021-3.9232 9.9542-5.2683 21.778-2.7405 33.866 3.6508 17.459 14.367 34.908 28.561 43.356-9.5132-8.0765-31.281-48.907-21.226-78.037-6.0168-27.104-10.284-50.812-8.0561-51.111 7.5766-1.0142 19.21 17.27 28.887 25.136 16.945-7.5925 51.024-16.65 78.955 2.381 10.725-7.8404 10.757-21.014 28-27.948-3.4648-3.523-34.367 13.255-40.242 16.495-6.9021-3.7956-17.021-6.9387-27.774-7.4004-9.9244-0.4261-20.4 1.5079-29.134 5.5644 0 0-40.502-22.431-43.573-18.323z"/>
  <path id="path3001" style="enable-background:new" d="m136.11 271.12c16.125-6.4382 32.249-5.2639 48.374 0-16.738-1.5334-33.185-2.3393-48.374 0z"/>
  <path id="path3003" style="enable-background:new" d="m139.92 276.69c12.901-5.1511 25.802-4.2115 38.703 0-13.392-1.2268-26.55-1.8716-38.703 0z"/>
  <path id="path3005" style="enable-background:new" d="m146.07 281.09c8.6026-3.4349 17.205-2.8084 25.808 0-8.9298-0.8181-17.704-1.248-25.808 0z"/>
  <path id="path3915" style="enable-background:new" fill-opacity=".71488" fill="#f95" d="m227.03 316.01s16.333-29.014 25.498-39.906c34.192-40.635 95.148-22.139 94.427-19.798-0.35887-9.4386-8.4196-17.309-24.556-18.478-24.728-1.7911-59.053 10.146-75.468 29.568-6.3933 7.5648-11.639 15.086-18.035 26.224l-3.5242 15.03z"/>
  <path id="path3927" style="enable-background:new" d="m114.39 323.27c-7.3142-2.5283-13.176-9.3553-23.945-1.6584 7.3759-1.9122 15.214-1.9444 23.945 1.6584z"/>
  <path id="path3929" style="enable-background:new" d="m114.58 335.42c-7.3142-2.5283-13.176-9.3553-23.945-1.6584 7.3759-1.9123 15.214-1.9444 23.945 1.6584z"/>
  <path id="path3931" style="enable-background:new" d="m116.18 350.25c-7.3142-2.5283-13.176-9.3553-23.945-1.6584 7.3759-1.9122 15.214-1.9444 23.945 1.6584z"/>
  <path id="path3038" style="enable-background:new" d="m298.63 236.21c17.102 11.793 9.7143 21.506 8.4827 31.658-0.52069-9.3992 1.0596-17.748-8.4827-31.658z"/>
  <path id="path3042" style="enable-background:new" d="m284.38 251.35c17.102 9.0287 9.7143 16.465 8.4827 24.237-0.52068-7.196 1.0596-13.588-8.4827-24.237z"/>
  <path id="path3044" style="enable-background:new" d="m261.23 250.16c17.102 9.0287 9.7143 16.465 8.4827 24.237-0.52069-7.196 1.0596-13.588-8.4827-24.237z"/>
  <path id="path3046" style="enable-background:new" d="m252.92 268.27c17.102 9.0287 9.7143 16.465 8.4826 24.237-0.52057-7.196 1.0597-13.588-8.4826-24.237z"/>
  <path id="path3048" style="enable-background:new" d="m237.78 270.64c17.102 9.0287 9.7143 16.465 8.4827 24.237-0.52069-7.196 1.0596-13.588-8.4827-24.237z"/>
  <path id="path3050" style="enable-background:new" d="m234.51 294.09c17.102 9.0287 9.7143 16.465 8.4826 24.237-0.52057-7.196 1.0597-13.588-8.4826-24.237z"/>
  <path id="path3052" style="enable-background:new" d="m224.42 297.95c14.588 7.7018 8.2867 14.045 7.236 20.675-0.44406-6.1384 0.90395-11.591-7.236-20.675z"/>
  <path id="path3054" style="enable-background:new" d="m325.05 235.62c23.632 5.5596 31.976 25.365 11.154 33.736-0.52068-9.3992-1.6118-19.826-11.154-33.736z"/>
  <path id="path3056" style="enable-background:new" d="m298.63 236.21c17.102 11.793 9.7143 21.506 8.4827 31.658-0.52069-9.3992 1.0596-17.748-8.4827-31.658z"/>
  <path id="path3058" style="enable-background:new" d="m316.66 246.19c15.017 10.356 8.5303 18.885 7.4487 27.799-0.45715-8.2535 0.93048-15.585-7.4487-27.799z"/>
 </g>
 <metadata>
  <rdf:RDF>
   <cc:Work>
    <dc:format>image/svg+xml</dc:format>
    <dc:type rdf:resource="http://purl.org/dc/dcmitype/StillImage"/>
    <cc:license rdf:resource="http://creativecommons.org/licenses/publicdomain/"/>
    <dc:publisher>
     <cc:Agent rdf:about="http://openclipart.org/">
      <dc:title>Openclipart</dc:title>
     </cc:Agent>
    </dc:publisher>
   </cc:Work>
   <cc:License rdf:about="http://creativecommons.org/licenses/publicdomain/">
    <cc:permits rdf:resource="http://creativecommons.org/ns#Reproduction"/>
    <cc:permits rdf:resource="http://creativecommons.org/ns#Distribution"/>
    <cc:permits rdf:resource="http://creativecommons.org/ns#DerivativeWorks"/>
   </cc:License>
  </rdf:RDF>
 </metadata>
</svg>
